<svg xmlns="http://www.w3.org/2000/svg" width="18" height="18" viewBox="0 0 18 18"><g><g><path fill="#ccc" d="M9.442 17.65C4.648 17.65.749 13.768.749 9S4.649.35 9.442.35c4.793 0 8.693 3.881 8.693 8.65s-3.9 8.65-8.693 8.65zm7.33-7.466c-.253-.08-2.297-.686-4.624-.316.971 2.655 1.366 4.818 1.442 5.267a7.396 7.396 0 0 0 3.183-4.951zm-4.43 5.628c-.11-.649-.541-2.907-1.584-5.602l-.049.016c-4.188 1.452-5.691 4.341-5.825 4.613a7.413 7.413 0 0 0 4.558 1.56c1.028 0 2.009-.21 2.9-.587zM3.925 13.95c.169-.287 2.206-3.644 6.036-4.875.097-.031.194-.06.292-.088-.186-.42-.389-.84-.602-1.254-3.708 1.104-7.306 1.058-7.63 1.052a7.337 7.337 0 0 0 1.905 5.165zM2.173 7.498c.333.005 3.392.018 6.865-.9a47.06 47.06 0 0 0-2.753-4.272 7.419 7.419 0 0 0-4.112 5.172zM7.702 1.83a39.34 39.34 0 0 1 2.77 4.325c2.64-.985 3.758-2.48 3.892-2.669a7.417 7.417 0 0 0-4.922-1.862c-.6 0-1.182.072-1.74.206zm7.487 2.51c-.156.211-1.4 1.798-4.146 2.913a22.81 22.81 0 0 1 .653 1.451c2.47-.308 4.925.187 5.17.238a7.332 7.332 0 0 0-1.677-4.602z"/><path fill="#fff" d="M9.442 17.65C4.648 17.65.749 13.768.749 9S4.649.35 9.442.35c4.793 0 8.693 3.881 8.693 8.65s-3.9 8.65-8.693 8.65zm7.33-7.466c-.253-.08-2.297-.686-4.624-.316.971 2.655 1.366 4.818 1.442 5.267a7.396 7.396 0 0 0 3.183-4.951zm-4.43 5.628c-.11-.649-.541-2.907-1.584-5.602l-.049.016c-4.188 1.452-5.691 4.341-5.825 4.613a7.413 7.413 0 0 0 4.558 1.56c1.028 0 2.009-.21 2.9-.587zM3.925 13.95c.169-.287 2.206-3.644 6.036-4.875.097-.031.194-.06.292-.088-.186-.42-.389-.84-.602-1.254-3.708 1.104-7.306 1.058-7.63 1.052a7.337 7.337 0 0 0 1.905 5.165zM2.173 7.498c.333.005 3.392.018 6.865-.9a47.06 47.06 0 0 0-2.753-4.272 7.419 7.419 0 0 0-4.112 5.172zM7.702 1.83a39.34 39.34 0 0 1 2.77 4.325c2.64-.985 3.758-2.48 3.892-2.669a7.417 7.417 0 0 0-4.922-1.862c-.6 0-1.182.072-1.74.206zm7.487 2.51c-.156.211-1.4 1.798-4.146 2.913a22.81 22.81 0 0 1 .653 1.451c2.47-.308 4.925.187 5.17.238a7.332 7.332 0 0 0-1.677-4.602z"/></g></g></svg>